<svg width="13" height="23" viewBox="0 0 13 23" fill="none" xmlns="http://www.w3.org/2000/svg">
  <path d="M12.5029 22.4937C12.8212 22.1695 13 21.7297 13 21.2712C13 20.8127 12.8212 20.373 12.5029 20.0487L4.09834 11.4896L12.5029 2.93038C12.8122 2.60426 12.9833 2.16748 12.9794 1.71411C12.9756 1.26073 12.797 0.827045 12.4822 0.50645C12.1674 0.185856 11.7415 0.00400697 11.2964 6.82385e-05C10.8512 -0.0038724 10.4223 0.170413 10.1021 0.485389L0.49712 10.2671C0.178815 10.5913 1.56954e-06 11.0311 1.50941e-06 11.4896C1.44929e-06 11.9481 0.178815 12.3878 0.49712 12.7121L10.1021 22.4937C10.4205 22.8179 10.8523 23 11.3025 23C11.7527 23 12.1845 22.8179 12.5029 22.4937Z" fill="white" />
</svg>