<svg width="78" height="80" viewBox="0 0 78 80" fill="none" xmlns="http://www.w3.org/2000/svg">
<path d="M39.3081 63.1271C39.3086 58.852 40.5551 54.6698 42.8952 51.092C45.2353 47.5142 48.5674 44.6961 52.484 42.9823C56.4006 41.2686 60.7317 40.7336 64.9476 41.4427C69.1635 42.1519 73.0812 44.0744 76.2216 46.9752C76.3255 39.4602 76.2632 31.9452 76.0345 24.4302C75.9098 19.267 72.9931 14.0836 68.1106 11.5223C65.6007 10.1957 63.0005 8.91896 60.369 7.70924C49.9788 11.0703 37.8068 15.496 25.5319 20.9928C24.3517 21.5142 23.3407 22.3551 22.6129 23.4205C21.8852 24.486 21.4697 25.7336 21.4133 27.0226C21.2215 32.9465 21.1623 39.0606 21.2402 45.1061C21.2459 45.2833 21.1947 45.4577 21.0942 45.6037C20.9937 45.7498 20.8491 45.8599 20.6815 45.9179C20.514 45.9759 20.3323 45.9787 20.163 45.9261C19.9937 45.8734 19.8456 45.768 19.7405 45.6252C18.4435 43.9623 17.1746 42.3182 15.9337 40.6928C15.8423 40.5661 15.7067 40.4784 15.5537 40.4469C15.4007 40.4155 15.2414 40.4426 15.1075 40.5229C14.144 41.0965 13.1973 41.6624 12.2671 42.2205C11.7464 42.5323 11.1057 42.1161 11.1026 41.4754C11.0714 35.4533 11.2226 29.4156 11.5438 23.5634C11.6794 21.0956 13.229 18.7713 15.519 17.6395C27.2919 11.8248 39.8521 7.07476 50.5697 3.55941C48.0676 2.58353 45.5952 1.68871 43.1742 0.840658C39.9093 -0.280219 36.3638 -0.280219 33.0989 0.840658C25.0222 3.628 16.1987 7.26651 8.16248 11.5223C3.27372 14.0836 0.363227 19.267 0.238514 24.4302C-0.0795047 34.7502 -0.0795047 45.0702 0.238514 55.3902C0.363227 60.5534 3.27996 65.7368 8.16248 68.2981C16.1987 72.5539 25.0222 76.1924 33.1051 78.9782C36.37 80.0991 39.9155 80.0991 43.1804 78.9782C43.8871 78.735 44.5995 78.484 45.3177 78.2252C41.4457 74.1537 39.2931 68.7458 39.3081 63.1271Z" fill="white"/>
<path d="M61.3003 46.4282C57.9971 46.4282 54.7682 47.4077 52.0217 49.2429C49.2753 51.0781 47.1347 53.6864 45.8707 56.7382C44.6067 59.7899 44.2761 63.1479 44.9206 66.3876C45.5652 69.6273 47.1559 72.603 49.4917 74.9386C51.8275 77.2742 54.8034 78.8646 58.0431 79.5088C61.2828 80.1531 64.6408 79.8221 67.6924 78.5578C70.744 77.2936 73.3522 75.1528 75.1871 72.4061C77.022 69.6595 78.0013 66.4305 78.0009 63.1273C78.0005 58.6983 76.2408 54.4508 73.1089 51.3192C69.9769 48.1875 65.7293 46.4282 61.3003 46.4282ZM67.9194 65.5717H60.9682C60.7072 65.5717 60.4488 65.5203 60.2076 65.4204C59.9665 65.3205 59.7473 65.1741 59.5628 64.9895C59.3782 64.805 59.2318 64.5859 59.1319 64.3447C59.032 64.1036 58.9806 63.8451 58.9806 63.5841V52.9055C58.9806 52.3784 59.19 51.8728 59.5628 51.5001C59.9355 51.1273 60.4411 50.9179 60.9682 50.9179C61.4954 50.9179 62.0009 51.1273 62.3737 51.5001C62.7464 51.8728 62.9558 52.3784 62.9558 52.9055V61.5965H67.9194C68.4466 61.5965 68.9521 61.8059 69.3249 62.1786C69.6976 62.5514 69.9071 63.0569 69.9071 63.5841C69.9071 64.1112 69.6976 64.6168 69.3249 64.9895C68.9521 65.3623 68.4466 65.5717 67.9194 65.5717Z" fill="white"/>
</svg>
