<svg width="69" height="65" viewBox="0 0 69 65" fill="none" xmlns="http://www.w3.org/2000/svg">
<path d="M34.0933 41.0645L25.0964 50.0614C25.5849 52.1066 25.5013 54.2467 24.8549 56.2476C24.2084 58.2485 23.0239 60.0329 21.4311 61.4056C19.8383 62.7783 17.8985 63.6864 15.8241 64.0304C13.7497 64.3744 11.6207 64.1411 9.67001 63.3561C9.49346 63.2852 9.33732 63.1716 9.21566 63.0254C9.094 62.8791 9.01064 62.7049 8.97312 62.5184C8.9356 62.332 8.94508 62.1391 9.00071 61.9572C9.05634 61.7753 9.15638 61.6101 9.2918 61.4765L15.0223 55.746L14.2085 52.4567L10.9192 51.643L5.24608 57.3735C5.11249 57.5089 4.9473 57.6089 4.76539 57.6645C4.58349 57.7202 4.3906 57.7297 4.20411 57.6921C4.01763 57.6546 3.84342 57.5713 3.69719 57.4496C3.55096 57.3279 3.43731 57.1718 3.36649 56.9952C2.79645 55.6414 2.49666 54.1892 2.484 52.7203C2.484 49.6807 3.69149 46.7656 5.84083 44.6162C7.99017 42.4669 10.9053 41.2594 13.9449 41.2594C14.8366 41.2571 15.7253 41.361 16.5924 41.5688L25.6007 32.5605L34.0933 41.0645ZM65.8401 7.18601C65.7692 7.00946 65.6556 6.85332 65.5094 6.73166C65.3631 6.61 65.1889 6.52664 65.0024 6.48912C64.816 6.4516 64.6231 6.46108 64.4412 6.51671C64.2593 6.57235 64.0941 6.67238 63.9605 6.8078L58.23 12.5383L54.9407 11.7245L54.127 8.43525L59.8575 2.76209C59.9929 2.62849 60.0929 2.4633 60.1485 2.28139C60.2042 2.09949 60.2137 1.9066 60.1761 1.72011C60.1386 1.53363 60.0553 1.35942 59.9336 1.21319C59.8119 1.06696 59.6558 0.953311 59.4792 0.882492C58.1251 0.313575 56.6731 0.0138309 55.2043 0C52.1647 0 49.2496 1.20749 47.1002 3.35683C44.9509 5.50617 43.7434 8.42131 43.7434 11.4609C43.7411 12.3526 43.845 13.2413 44.0528 14.1084L37.3367 20.8245L45.8407 29.3285L52.5568 22.6124C53.4239 22.8203 54.3127 22.9242 55.2043 22.9219C56.7094 22.9219 58.1997 22.6254 59.5902 22.0495C60.9807 21.4735 62.2442 20.6293 63.3084 19.565C64.3727 18.5008 65.2169 17.2374 65.7928 15.8468C66.3688 14.4563 66.6653 12.966 66.6653 11.4609C66.6696 9.99597 66.3894 8.54411 65.8401 7.18601ZM67.1925 53.9237L31.5146 18.2344L23.0105 26.7384L58.6999 62.4163C59.2552 62.9843 59.9177 63.4366 60.649 63.7469C61.3803 64.0571 62.1659 64.2192 62.9603 64.2237C63.7547 64.2282 64.5421 64.0751 65.2769 63.7732C66.0117 63.4713 66.6793 63.0266 67.241 62.4648C67.8027 61.9031 68.2475 61.2355 68.5494 60.5007C68.8513 59.7659 69.0044 58.9785 68.9999 58.1841C68.9954 57.3897 68.8333 56.6041 68.5231 55.8728C68.2128 55.1415 67.7605 54.479 67.1925 53.9237ZM1.00554 19.3461C0.36166 19.9907 0 20.8646 0 21.7758C0 22.6869 0.36166 23.5608 1.00554 24.2055L8.07694 31.2769C8.72162 31.9208 9.59551 32.2824 10.5067 32.2824C11.4178 32.2824 12.2917 31.9208 12.9364 31.2769L15.091 29.1337L3.14873 17.1914L1.00554 19.3461ZM38.9183 6.16599C38.712 5.91384 33.9672 0 26.2884 0C24.243 0.0650366 22.2306 0.532777 20.3663 1.37645C18.5019 2.22013 16.8223 3.42317 15.4234 4.91674L7.40074 12.9394C7.29332 13.0459 7.20806 13.1727 7.14987 13.3124C7.09169 13.452 7.06173 13.6018 7.06173 13.7531C7.06173 13.9044 7.09169 14.0542 7.14987 14.1939C7.20806 14.3335 7.29332 14.4603 7.40074 14.5669L7.97379 15.1399C8.10681 15.2554 8.21463 15.3971 8.29054 15.556C8.36645 15.715 8.40882 15.8879 8.41502 16.064C8.42121 16.24 8.3911 16.4155 8.32656 16.5794C8.26201 16.7433 8.16442 16.8922 8.03985 17.0168C7.91527 17.1414 7.76639 17.239 7.60247 17.3035C7.43855 17.368 7.2631 17.3982 7.08704 17.392C6.91097 17.3858 6.73807 17.3434 6.57909 17.2675C6.42012 17.1916 6.27847 17.0837 6.16296 16.9507L15.3317 26.1195C15.1187 25.8742 15.0067 25.5573 15.0181 25.2327C15.0295 24.9081 15.1636 24.5999 15.3933 24.3702C15.623 24.1405 15.9312 24.0065 16.2558 23.995C16.5804 23.9836 16.8973 24.0957 17.1425 24.3086L18.8617 26.0278C18.9682 26.1352 19.095 26.2205 19.2346 26.2787C19.3743 26.3368 19.5241 26.3668 19.6754 26.3668C19.8267 26.3668 19.9765 26.3368 20.1162 26.2787C20.2558 26.2205 20.3826 26.1352 20.4891 26.0278L30.804 15.7129C30.9114 15.6064 30.9967 15.4796 31.0549 15.34C31.113 15.2003 31.143 15.0505 31.143 14.8992C31.143 14.7479 31.113 14.5981 31.0549 14.4585C30.9967 14.3188 30.9114 14.192 30.804 14.0855L27.3657 10.6472C27.2188 10.5467 27.0937 10.4175 26.9981 10.2673C26.9025 10.1171 26.8383 9.94917 26.8094 9.77353C26.7805 9.59788 26.7875 9.41819 26.8299 9.24531C26.8723 9.07242 26.9493 8.90993 27.0563 8.76762C28.2023 7.08286 32.6033 5.79923 37.5659 7.93097C37.799 8.02927 38.058 8.04772 38.3026 7.98346C38.5472 7.9192 38.7637 7.77582 38.9183 7.57568C39.0754 7.3743 39.1607 7.12622 39.1607 6.87083C39.1607 6.61544 39.0754 6.36737 38.9183 6.16599Z" fill="white"/>
</svg>
