<svg width="84" height="84" viewBox="0 0 84 84" fill="none" xmlns="http://www.w3.org/2000/svg">
<path d="M84 51.7332V32.2666H75.4671C74.7564 29.8182 73.7781 27.4598 72.5443 25.2204L78.5809 19.1838L64.8161 5.4189L58.7795 11.4557C56.54 10.2219 54.1816 9.24358 51.7332 8.53289V0H32.2666V8.53289C29.8182 9.24358 27.46 10.2219 25.2205 11.4557L19.1839 5.41906L5.41906 19.1839L11.4557 25.2205C10.2219 27.46 9.24375 29.8182 8.53305 32.2668H0V51.7334H8.53305C9.24375 54.1819 10.2219 56.5402 11.4557 58.7795L5.41906 64.8161L19.1839 78.5809L25.2205 72.5443C26.7993 73.4142 28.4382 74.1541 30.125 74.7658V61.3636C23.5353 57.2684 19.5004 50.0759 19.5004 42.2502C19.5004 33.1577 24.9188 25.0095 33.3046 21.4923L36.7157 20.0614V39.6621L42.0025 42.8396L47.2892 39.6621V20.0614L50.7003 21.4923C59.0861 25.0095 64.5045 33.1577 64.5045 42.2502C64.5045 50.0677 60.4755 57.2566 53.8956 61.3536V74.7602C55.574 74.15 57.2059 73.4119 58.7798 72.5445L64.8163 78.5811L78.5811 64.8163L72.5445 58.7796C73.7781 56.5403 74.7564 54.1821 75.4671 51.7336H84V51.7332Z" fill="white"/>
<path d="M48.9758 58.4611L50.276 57.7661C56.0179 54.6969 59.5848 48.7515 59.5848 42.2501C59.5848 36.4695 56.7819 31.1774 52.2085 27.9248V42.4451L42.0023 48.5793L31.7962 42.4451V27.9248C27.2226 31.1774 24.4197 36.4695 24.4197 42.2501C24.4197 48.7582 27.9918 54.7066 33.7423 57.7735L35.0445 58.468V83.9999H48.9759L48.9758 58.4611Z" fill="white"/>
</svg>
