<svg width="68" height="81" viewBox="0 0 68 81" fill="none" xmlns="http://www.w3.org/2000/svg">
<path d="M67.9147 20.7972C67.8181 18.6716 67.8181 16.6426 67.8181 14.6136C67.8181 12.9711 66.5621 11.715 64.9196 11.715C52.8422 11.715 43.6634 8.23674 36.0306 0.797104C34.8711 -0.265701 33.132 -0.265701 31.9726 0.797104C24.3397 8.23674 15.1609 11.715 3.08358 11.715C1.44106 11.715 0.185021 12.9711 0.185021 14.6136C0.185021 16.6426 0.18502 18.6716 0.0884018 20.7972C-0.298073 41.0871 -0.877787 68.9133 33.0354 80.6041L34.0016 80.7974L34.9678 80.6041C68.7843 68.9133 68.3012 41.1837 67.9147 20.7972ZM31.6827 48.9132C31.103 49.3963 30.4267 49.6862 29.6537 49.6862H29.5571C28.7842 49.6862 28.0112 49.2997 27.5281 48.72L18.5426 38.7682L22.8904 34.9035L29.9436 42.7296L45.5958 27.8503L49.5572 32.1016L31.6827 48.9132Z" fill="white"/>
</svg>
