<svg width="80" height="73" viewBox="0 0 80 73" fill="none" xmlns="http://www.w3.org/2000/svg">
<path d="M78.5785 63.7552C78.8566 64.8 78.8551 65.8996 78.5744 66.9437C78.2937 67.9878 77.7435 68.9398 76.979 69.7044C76.2144 70.4689 75.2624 71.0191 74.2183 71.2998C73.1742 71.5806 72.0746 71.582 71.0297 71.3039L63.9528 69.4167C59.8881 71.5022 55.3835 72.5848 50.815 72.5742C49.3573 72.5737 47.9015 72.4645 46.46 72.2475C40.857 71.3602 35.6418 68.8347 31.4714 64.9891C32.4875 64.9891 33.4674 64.9891 34.4836 64.7714C39.7347 63.9886 44.7501 62.0632 49.1761 59.1311C53.6021 56.199 57.3309 52.3315 60.0994 47.8014C62.868 43.2713 64.609 38.1889 65.1995 32.9127C65.7901 27.6366 65.2158 22.2951 63.5173 17.265C67.7777 19.3067 71.4756 22.3572 74.2899 26.1519C77.1043 29.9465 78.9501 34.3706 79.6673 39.0403C80.5845 45.0238 79.594 51.1442 76.8365 56.5331L78.5785 63.7552ZM49.5448 8.4823C45.7458 4.69118 40.9702 2.0273 35.7485 0.786523C30.5268 -0.454258 25.0634 -0.223377 19.965 1.45352C14.8667 3.13042 10.3329 6.18771 6.86721 10.2858C3.40154 14.384 1.13964 19.3625 0.332723 24.6686C-0.584476 30.6521 0.405965 36.7725 3.16351 42.1614L1.27632 49.4198C0.982053 50.4638 0.975083 51.5678 1.25614 52.6154C1.5372 53.663 2.09587 54.6152 2.87317 55.3717C3.62963 56.149 4.58191 56.7077 5.6295 56.9887C6.67709 57.2698 7.78112 57.2628 8.82508 56.9686L15.902 55.0814C19.9823 57.104 24.4862 58.1242 29.0398 58.0573C34.7854 58.0618 40.4032 56.3615 45.182 53.1715C49.9608 49.9816 53.6856 45.4455 55.885 40.1374C58.0844 34.8294 58.6594 28.9882 57.5372 23.3532C56.415 17.7182 53.6462 12.5428 49.5811 8.4823H49.5448Z" fill="white"/>
</svg>
