<svg width="77" height="77" viewBox="0 0 77 77" fill="none" xmlns="http://www.w3.org/2000/svg">
<path d="M31.4312 11.6921C31.4312 7.54585 34.8044 4.17259 38.9507 4.17259H41.5531L40.768 1.99042C40.3266 0.763232 39.1701 0 37.9375 0C37.596 0 37.2486 0.0586523 36.909 0.182273L10.6128 9.75328C9.04944 10.3224 8.24485 12.0523 8.81724 13.6144L10.2067 17.407H31.4312V11.6921Z" fill="white"/>
<path d="M38.9512 8.68408C37.29 8.68408 35.9434 10.0307 35.9434 11.6919V17.4067H62.2617V11.6919C62.2617 10.0307 60.9151 8.68408 59.2539 8.68408H38.9512Z" fill="white"/>
<path d="M70.2324 60.7944H59.7051C53.4857 60.7944 48.4258 55.7345 48.4258 49.5151C48.4258 43.2957 53.4857 38.2358 59.7051 38.2358H70.2324V27.9341C70.2324 24.6118 67.5391 21.9185 64.2168 21.9185H6.01562C2.69335 21.9185 0 24.6118 0 27.9341V70.9841C0 74.3064 2.69335 76.9998 6.01562 76.9998H64.2168C67.5391 76.9998 70.2324 74.3064 70.2324 70.9841V60.7944Z" fill="white"/>
<path d="M74.7441 42.748H59.7051C55.9734 42.748 52.9375 45.784 52.9375 49.5156C52.9375 53.2473 55.9734 56.2832 59.7051 56.2832H74.7441C75.988 56.2832 77 55.2712 77 54.0273V45.0039C77 43.76 75.988 42.748 74.7441 42.748ZM59.7051 51.7715C58.4592 51.7715 57.4492 50.7615 57.4492 49.5156C57.4492 48.2698 58.4592 47.2598 59.7051 47.2598C60.9509 47.2598 61.9609 48.2698 61.9609 49.5156C61.9609 50.7615 60.9509 51.7715 59.7051 51.7715Z" fill="white"/>
</svg>
