<svg width="26" height="31" viewBox="0 0 26 31" fill="none" xmlns="http://www.w3.org/2000/svg">
<path d="M25.9674 7.95186C25.9305 7.13913 25.9305 6.36334 25.9305 5.58754C25.9305 4.95952 25.4502 4.47927 24.8222 4.47927C20.2044 4.47927 16.6948 3.14934 13.7764 0.304775C13.3331 -0.101592 12.6681 -0.101592 12.2248 0.304775C9.30635 3.14934 5.79682 4.47927 1.17902 4.47927C0.550995 4.47927 0.0707432 4.95952 0.0707432 5.58754C0.0707432 6.36334 0.0707431 7.13913 0.0338007 7.95186C-0.113969 15.7098 -0.335624 26.3492 12.6312 30.8192L13.0006 30.8931L13.37 30.8192C26.2999 26.3492 26.1152 15.7467 25.9674 7.95186ZM12.114 18.7021C11.8923 18.8868 11.6337 18.9976 11.3382 18.9976H11.3012C11.0057 18.9976 10.7102 18.8499 10.5255 18.6282L7.08981 14.8232L8.75222 13.3455L11.449 16.3378L17.4337 10.6487L18.9483 12.2741L12.114 18.7021Z" fill="white"/>
</svg>
