<svg width="32" height="30" viewBox="0 0 32 30" fill="none" xmlns="http://www.w3.org/2000/svg">
<path d="M15.8114 19.0442L11.6389 23.2166C11.8655 24.1651 11.8267 25.1577 11.5269 26.0856C11.2271 27.0135 10.6777 27.8411 9.93905 28.4777C9.20035 29.1144 8.30075 29.5355 7.33871 29.695C6.37668 29.8546 5.3893 29.7464 4.48464 29.3823C4.40276 29.3494 4.33035 29.2967 4.27393 29.2289C4.2175 29.1611 4.17885 29.0803 4.16145 28.9938C4.14404 28.9073 4.14844 28.8179 4.17424 28.7335C4.20004 28.6492 4.24644 28.5725 4.30924 28.5106L6.96685 25.853L6.58947 24.3275L5.064 23.9501L2.43297 26.6077C2.37101 26.6705 2.2944 26.7169 2.21004 26.7427C2.12568 26.7685 2.03622 26.7729 1.94973 26.7555C1.86325 26.7381 1.78245 26.6995 1.71464 26.643C1.64682 26.5866 1.59411 26.5142 1.56127 26.4323C1.2969 25.8045 1.15787 25.131 1.152 24.4498C1.152 23.0401 1.71199 21.6881 2.70879 20.6913C3.70559 19.6945 5.05753 19.1345 6.46722 19.1345C6.88073 19.1335 7.29291 19.1816 7.69503 19.2781L11.8728 15.1003L15.8114 19.0442ZM30.5345 3.3324C30.5017 3.25052 30.449 3.17811 30.3812 3.12168C30.3133 3.06526 30.2325 3.02661 30.1461 3.0092C30.0596 2.9918 29.9701 2.9962 29.8858 3.022C29.8014 3.0478 29.7248 3.09419 29.6628 3.157L27.0052 5.8146L25.4798 5.43722L25.1024 3.91176L27.76 1.28072C27.8228 1.21877 27.8692 1.14215 27.895 1.05779C27.9208 0.973432 27.9252 0.883975 27.9078 0.79749C27.8904 0.711004 27.8517 0.630211 27.7953 0.562394C27.7389 0.494578 27.6665 0.441871 27.5846 0.409028C26.9566 0.145182 26.2832 0.00617019 25.602 -0.000244141C24.1923 -0.000244141 22.8404 0.55975 21.8436 1.55655C20.8468 2.55334 20.2868 3.90529 20.2868 5.31497C20.2857 5.72849 20.3339 6.14066 20.4303 6.54279L17.3156 9.65751L21.2595 13.6014L24.3742 10.4867C24.7763 10.5831 25.1885 10.6313 25.602 10.6302C26.3 10.6302 26.9912 10.4927 27.636 10.2256C28.2809 9.95848 28.8669 9.56696 29.3604 9.0734C29.854 8.57984 30.2455 7.99389 30.5126 7.34902C30.7797 6.70415 30.9172 6.01298 30.9172 5.31497C30.9192 4.63557 30.7893 3.96224 30.5345 3.3324ZM31.1617 25.0079L14.6154 8.45627L10.6716 12.4002L27.2231 28.9464C27.4807 29.2099 27.7879 29.4196 28.1271 29.5635C28.4662 29.7074 28.8306 29.7826 29.199 29.7847C29.5674 29.7868 29.9326 29.7157 30.2733 29.5757C30.6141 29.4357 30.9237 29.2295 31.1842 28.969C31.4447 28.7084 31.651 28.3988 31.791 28.0581C31.931 27.7173 32.002 27.3521 32 26.9837C31.9979 26.6153 31.9227 26.251 31.7788 25.9118C31.6349 25.5726 31.4252 25.2654 31.1617 25.0079ZM0.466336 8.97184C0.167726 9.27083 0 9.67611 0 10.0987C0 10.5212 0.167726 10.9265 0.466336 11.2255L3.74583 14.505C4.04481 14.8036 4.45009 14.9713 4.87265 14.9713C5.29521 14.9713 5.7005 14.8036 5.99948 14.505L6.99874 13.511L1.46028 7.97258L0.466336 8.97184ZM18.0491 2.85934C17.9534 2.74241 15.7529 -0.000244141 12.1917 -0.000244141C11.2432 0.0299178 10.3099 0.246841 9.44523 0.638111C8.58061 1.02938 7.80163 1.58732 7.15288 2.27998L3.43223 6.00064C3.38241 6.05005 3.34287 6.10884 3.31588 6.17361C3.2889 6.23838 3.275 6.30785 3.275 6.37802C3.275 6.44818 3.2889 6.51766 3.31588 6.58243C3.34287 6.6472 3.38241 6.70599 3.43223 6.7554L3.69799 7.02116C3.75968 7.07473 3.80968 7.14042 3.84489 7.21415C3.88009 7.28788 3.89974 7.36806 3.90262 7.44972C3.90549 7.53137 3.89153 7.61274 3.86159 7.68876C3.83166 7.76478 3.7864 7.83383 3.72862 7.8916C3.67085 7.94937 3.60181 7.99463 3.52578 8.02457C3.44976 8.0545 3.36839 8.06846 3.28674 8.06559C3.20509 8.06272 3.1249 8.04307 3.05117 8.00786C2.97745 7.97266 2.91175 7.92265 2.85818 7.86096L7.11036 12.1131C7.01159 11.9994 6.95962 11.8524 6.96492 11.7019C6.97022 11.5513 7.03239 11.4084 7.13891 11.3019C7.24543 11.1954 7.38837 11.1332 7.53892 11.1279C7.68946 11.1226 7.83642 11.1746 7.95016 11.2733L8.74745 12.0706C8.79686 12.1204 8.85564 12.16 8.92041 12.187C8.98519 12.2139 9.05466 12.2278 9.12483 12.2278C9.19499 12.2278 9.26447 12.2139 9.32924 12.187C9.39401 12.16 9.45279 12.1204 9.50221 12.0706L14.2859 7.28692C14.3357 7.23751 14.3753 7.17872 14.4022 7.11395C14.4292 7.04918 14.4431 6.97971 14.4431 6.90954C14.4431 6.83937 14.4292 6.7699 14.4022 6.70513C14.3753 6.64036 14.3357 6.58157 14.2859 6.53216L12.6913 4.93759C12.6232 4.89098 12.5652 4.83104 12.5209 4.7614C12.4765 4.69177 12.4468 4.61387 12.4333 4.53241C12.4199 4.45095 12.4232 4.36761 12.4428 4.28744C12.4625 4.20726 12.4982 4.1319 12.5478 4.0659C13.0793 3.28456 15.1204 2.68926 17.4219 3.67789C17.53 3.72347 17.6501 3.73203 17.7635 3.70223C17.877 3.67243 17.9774 3.60593 18.0491 3.51311C18.1219 3.41972 18.1615 3.30467 18.1615 3.18623C18.1615 3.06779 18.1219 2.95274 18.0491 2.85934Z" fill="white"/>
</svg>
