<svg width="33" height="30" viewBox="0 0 33 30" fill="none" xmlns="http://www.w3.org/2000/svg">
<path d="M31.9492 14.5412H26.9492C24.7439 14.5412 22.9492 16.3359 22.9492 18.5412C22.9492 20.7465 24.7439 22.5412 26.9492 22.5412H31.9492C32.5012 22.5412 32.9492 22.0932 32.9492 21.5412V15.5412C32.9492 14.9892 32.5012 14.5412 31.9492 14.5412ZM26.9492 19.8745C26.2132 19.8745 25.6159 19.2772 25.6159 18.5412C25.6159 17.8052 26.2132 17.2079 26.9492 17.2079C27.6852 17.2079 28.2826 17.8052 28.2826 18.5412C28.2826 19.2772 27.6852 19.8745 26.9492 19.8745Z" fill="white"/>
<path d="M23.9766 5.88653L21.1459 1.0372C21.0112 0.806529 20.7899 0.638529 20.5312 0.571862C20.2739 0.507862 19.9979 0.545195 19.7686 0.682528L11.1152 5.87453L23.9766 5.88653Z" fill="white"/>
<path d="M4.94922 7.20778C4.21589 7.20778 3.61589 6.60778 3.61589 5.87445C3.61589 5.14112 4.21589 4.54112 4.94922 4.54112H9.44255L13.8959 1.87445H4.94922C2.97589 1.87445 1.33589 3.31445 1.01589 5.20778C0.989219 5.31445 0.949219 5.42112 0.949219 5.54112V25.8745C0.949219 28.0745 2.74922 29.8745 4.94922 29.8745H27.6159C29.0826 29.8745 30.2826 28.6745 30.2826 27.2078V24.5411H26.9492C23.6426 24.5411 20.9492 21.8478 20.9492 18.5411C20.9492 15.2345 23.6426 12.5411 26.9492 12.5411H30.2826V9.87445C30.2826 8.40778 29.0826 7.20778 27.6159 7.20778H4.94922ZM26.2826 4.54112C26.2826 3.19445 25.2826 2.07445 23.9759 1.90112L26.2826 5.87445V4.54112Z" fill="white"/>
</svg>
