<svg width="31" height="29" viewBox="0 0 31 29" fill="none" xmlns="http://www.w3.org/2000/svg">
<path d="M4.94922 6.20778C4.21589 6.20778 3.61589 5.60778 3.61589 4.87445C3.61589 4.14112 4.21589 3.54112 4.94922 3.54112H9.44255L13.8959 0.874451H4.94922C2.97589 0.874451 1.33589 2.31445 1.01589 4.20778C0.989219 4.31445 0.949219 4.42112 0.949219 4.54112V24.8745C0.949219 27.0745 2.74922 28.8745 4.94922 28.8745H27.6159C29.0826 28.8745 30.2826 27.6745 30.2826 26.2078V23.5411H26.9492C23.6426 23.5411 20.9492 20.8478 20.9492 17.5411C20.9492 14.2345 23.6426 11.5411 26.9492 11.5411H30.2826V8.87445C30.2826 7.40778 29.0826 6.20778 27.6159 6.20778H4.94922ZM26.2826 3.54112C26.2826 2.19445 25.2826 1.07445 23.9759 0.901117L26.2826 4.87445V3.54112Z" fill="white"/>
</svg>
