 <svg width="25" height="31" viewBox="0 0 25 31" fill="none" xmlns="http://www.w3.org/2000/svg">
                                <path d="M24.8524 10.1928C24.7265 9.92585 24.5264 9.70009 24.2757 9.54195C24.0249 9.38382 23.734 9.29989 23.4369 9.29999H16.5902L20.1463 2.24285C20.2653 2.0066 20.3215 1.7441 20.3095 1.48026C20.2976 1.21642 20.2178 0.959993 20.0779 0.73531C19.938 0.510628 19.7425 0.325142 19.51 0.196453C19.2775 0.0677641 19.0157 0.000141004 18.7495 1.31531e-09H9.37478C9.09624 -1.13805e-05 8.82275 0.0738458 8.58265 0.213923C8.34256 0.354 8.14457 0.555204 8.0092 0.796699L0.196933 14.7467C0.064672 14.9826 -0.00317314 15.2487 0.000114012 15.5187C0.00340116 15.7887 0.0777067 16.0531 0.215674 16.2858C0.353642 16.5185 0.550487 16.7114 0.786718 16.8454C1.02295 16.9795 1.29037 17.05 1.56252 17.05H8.98885L6.28737 29.1136C6.21038 29.4534 6.25098 29.809 6.40263 30.1231C6.55428 30.4372 6.80814 30.6915 7.12329 30.845C7.33782 30.9487 7.57366 31.0018 7.81233 31C8.0416 31.0001 8.2681 30.9502 8.47575 30.8537C8.6834 30.7573 8.86712 30.6167 9.01385 30.442L24.6384 11.842C24.8283 11.6157 24.9493 11.3403 24.9872 11.0483C25.0251 10.7562 24.9784 10.4595 24.8524 10.1928Z" fill="white"/>
                                </svg>