<svg width="14" height="26" viewBox="0 0 14 26" fill="none" xmlns="http://www.w3.org/2000/svg">
<path d="M3.22663 26H8.61331V15.0389H13.4667L14 9.59263H8.61331V6.84211C8.61331 6.47918 8.75519 6.13111 9.00774 5.87449C9.26029 5.61786 9.60283 5.47368 9.95998 5.47368H14V0H9.95998C8.17419 0 6.46153 0.720863 5.19878 2.00401C3.93603 3.28715 3.22663 5.02747 3.22663 6.84211V9.59263H0.533282L0 15.0389H3.22663V26Z" fill="white"/>
<path d="M3.22663 26H8.61331V15.0389H13.4667L14 9.59263H8.61331V6.84211C8.61331 6.47918 8.75519 6.13111 9.00774 5.87449C9.26029 5.61786 9.60283 5.47368 9.95998 5.47368H14V0H9.95998C8.17419 0 6.46153 0.720863 5.19878 2.00401C3.93603 3.28715 3.22663 5.02747 3.22663 6.84211V9.59263H0.533282L0 15.0389H3.22663V26Z" fill="url(#paint0_linear_111_98)"/>
<defs>
<linearGradient id="paint0_linear_111_98" x1="0" y1="0" x2="19.4105" y2="5.30429" gradientUnits="userSpaceOnUse">
<stop stop-color="#7492FF"/>
<stop offset="1" stop-color="#1931AE"/>
</linearGradient>
</defs>
</svg>
